<svg id="Layer_1" data-name="Layer 1" xmlns="http://www.w3.org/2000/svg" xmlns:xlink="http://www.w3.org/1999/xlink" viewBox="0 0 1024 1024"><defs><style>.cls-1{fill:#fdf392;}.cls-1,.cls-2,.cls-3,.cls-4{opacity:0.51;}.cls-2{fill:#ef3932;}.cls-3{fill:#c9e3b5;}.cls-4{fill:#83c0e9;}.cls-5{fill:url(#radial-gradient);}.cls-6{fill:none;}</style><radialGradient id="radial-gradient" cx="519.64" cy="515.19" fx="561.0501465831155" fy="383.9589726857381" r="419.94" gradientUnits="userSpaceOnUse"><stop offset="0.21" stop-color="#1d74ba"/><stop offset="0.53" stop-color="#24507e"/><stop offset="0.74" stop-color="#283b5b"/></radialGradient></defs><circle class="cls-1" cx="486.02" cy="451.88" r="185.8"/><circle class="cls-2" cx="609.18" cy="242.59" r="188.61"/><circle class="cls-3" cx="653.64" cy="402.73" r="204.81"/><circle class="cls-4" cx="443.9" cy="293.13" r="178.5"/><path class="cls-5" d="M554.21,40.7c-178.14,0-322.55,144.41-322.55,322.59,0,103.73,49,196,125.07,255L322.5,677.65a73.29,73.29,0,0,0-54.4,36l-95.81,166A73.4,73.4,0,1,0,299.43,953l95.8-165.93A72.73,72.73,0,0,0,405,750.63a74.19,74.19,0,0,0-6.23-29.73l33.94-58.76a320.9,320.9,0,0,0,121.49,23.69c178.17,0,322.58-144.41,322.58-322.54S732.38,40.7,554.21,40.7ZM556,599.3c-130.62,0-236.49-105.91-236.49-236.52S425.4,126.29,556,126.29,792.54,232.17,792.54,362.78,686.63,599.3,556,599.3Z"/><rect class="cls-6" x="2.17" y="-0.09" width="1020.17" height="1023.26"/></svg>